<svg width="17" height="17" viewBox="0 0 17 17" fill="none" xmlns="http://www.w3.org/2000/svg">
<path d="M16.0429 6.95818C16.0012 5.60148 15.875 4.19178 15.1329 2.99031C14.5044 1.9731 13.5276 1.40896 12.4397 1.01268C11.8415 0.793086 11.2155 0.610089 10.5908 0.478836C9.25812 0.199924 7.62503 -0.123159 6.29105 0.232738C5.04414 0.564656 3.92092 1.41906 2.93022 2.22929C1.69341 3.24145 0.311473 4.51107 0.108283 6.20095C-0.163056 8.47137 0.263515 9.1188 1.01191 11.2062C1.35518 12.1641 1.93446 13.9234 2.9075 14.3702C3.91714 14.8333 6.02728 15.448 7.11642 15.6322C8.29517 15.8316 9.73265 16.2393 10.7713 16.0058C11.9576 15.7395 13.0329 14.5961 13.9037 13.7732C14.7001 13.021 15.4548 12.4443 15.8006 11.5268C16.3029 10.1979 16.0858 8.3641 16.0429 6.95818" fill="#ADADAD"/>
<mask id="mask0_1_25" style="mask-type:luminance" maskUnits="userSpaceOnUse" x="0" y="0" width="17" height="17">
<path d="M16.0429 6.95818C16.0012 5.60148 15.875 4.19178 15.1329 2.99031C14.5044 1.9731 13.5276 1.40896 12.4397 1.01268C11.8415 0.793086 11.2155 0.610089 10.5908 0.478836C9.25812 0.199924 7.62503 -0.123159 6.29105 0.232738C5.04414 0.564656 3.92092 1.41906 2.93022 2.22929C1.69341 3.24145 0.311473 4.51107 0.108283 6.20095C-0.163056 8.47137 0.263515 9.1188 1.01191 11.2062C1.35518 12.1641 1.93446 13.9234 2.9075 14.3702C3.91714 14.8333 6.02728 15.448 7.11642 15.6322C8.29517 15.8316 9.73265 16.2393 10.7713 16.0058C11.9576 15.7395 13.0329 14.5961 13.9037 13.7732C14.7001 13.021 15.4548 12.4443 15.8006 11.5268C16.3029 10.1979 16.0858 8.3641 16.0429 6.95818" fill="white"/>
</mask>
<g mask="url(#mask0_1_25)">
<path d="M1.38169 3.32358C2.65383 2.03755 4.39041 0.405729 6.37056 -0.107924C7.61367 -0.431008 8.93756 -0.365381 10.1769 -0.11802C11.4465 0.135651 13.3434 0.595036 14.2747 1.56681C14.9234 2.24327 14.7114 3.29329 14.0173 3.88014C12.6391 5.05006 9.92069 7.58803 8.79495 7.90102C8.40371 8.01082 7.83705 8.01587 7.47989 8.00198C6.73655 7.97548 3.31388 7.15894 1.4612 6.47112C0.844056 6.24269 0.383409 6.02309 0.295066 5.44129C0.202936 4.83803 0.788526 3.92179 1.38169 3.32358Z" fill="#E0E0E0"/>
</g>
<mask id="mask1_1_25" style="mask-type:luminance" maskUnits="userSpaceOnUse" x="0" y="0" width="17" height="17">
<path d="M16.0429 6.95818C16.0012 5.60148 15.875 4.19178 15.1329 2.99031C14.5044 1.9731 13.5276 1.40896 12.4397 1.01268C11.8415 0.793086 11.2155 0.610089 10.5908 0.478836C9.25812 0.199924 7.62503 -0.123159 6.29105 0.232738C5.04414 0.564656 3.92092 1.41906 2.93022 2.22929C1.69341 3.24145 0.311473 4.51107 0.108283 6.20095C-0.163056 8.47137 0.263515 9.1188 1.01191 11.2062C1.35518 12.1641 1.93446 13.9234 2.9075 14.3702C3.91714 14.8333 6.02728 15.448 7.11642 15.6322C8.29517 15.8316 9.73265 16.2393 10.7713 16.0058C11.9576 15.7395 13.0329 14.5961 13.9037 13.7732C14.7001 13.021 15.4548 12.4443 15.8006 11.5268C16.3029 10.1979 16.0858 8.3641 16.0429 6.95818" fill="white"/>
</mask>
<g mask="url(#mask1_1_25)">
<path d="M9.41839 16.141C9.14327 16.5297 7.88122 16.0868 6.93974 15.9492C6.03233 15.8142 3.64958 15.1503 2.82547 14.8323C1.25422 14.224 0.432628 10.111 0.187791 9.30705C-0.160533 8.16869 -0.462162 7.4203 0.284969 7.13255C0.556309 7.0278 1.17597 7.15653 1.93951 7.32438C3.06652 7.57426 6.60025 8.50439 7.58086 8.86281C8.04529 9.03193 8.34439 9.47238 8.51729 9.93429C8.84921 10.819 9.32879 13.858 9.37548 14.412C9.41208 14.8361 9.62916 15.8457 9.41839 16.141Z" fill="#CCCBCB"/>
</g>
<mask id="mask2_1_25" style="mask-type:luminance" maskUnits="userSpaceOnUse" x="0" y="0" width="17" height="17">
<path d="M16.0429 6.95818C16.0012 5.60148 15.875 4.19178 15.1329 2.99031C14.5044 1.9731 13.5276 1.40896 12.4397 1.01268C11.8415 0.793086 11.2155 0.610089 10.5908 0.478836C9.25812 0.199924 7.62503 -0.123159 6.29105 0.232738C5.04414 0.564656 3.92092 1.41906 2.93022 2.22929C1.69341 3.24145 0.311473 4.51107 0.108283 6.20095C-0.163056 8.47137 0.263515 9.1188 1.01191 11.2062C1.35518 12.1641 1.93446 13.9234 2.9075 14.3702C3.91714 14.8333 6.02728 15.448 7.11642 15.6322C8.29517 15.8316 9.73265 16.2393 10.7713 16.0058C11.9576 15.7395 13.0329 14.5961 13.9037 13.7732C14.7001 13.021 15.4548 12.4443 15.8006 11.5268C16.3029 10.1979 16.0858 8.3641 16.0429 6.95818" fill="white"/>
</mask>
<g mask="url(#mask2_1_25)">
<path d="M16.1401 11.7488C15.7539 12.5464 15.0408 13.1787 14.4237 13.811C13.5718 14.6818 12.2832 15.9489 11.0603 16.1912C10.4419 16.3137 10.1479 15.3608 9.97496 14.8118C9.92448 14.6541 9.66197 13.1535 9.59508 12.7534C9.43606 11.822 9.22278 10.8553 9.32753 9.90498C9.39947 9.2525 9.53324 8.71361 9.94341 8.2416C10.3851 7.73552 10.9429 7.30895 11.4604 6.91267C12.2466 6.30689 12.9988 5.65694 13.7876 5.05494C14.3303 4.63973 15.1001 3.91153 15.7715 4.52488C16.3066 5.01329 16.2738 6.23243 16.3016 6.89753C16.3268 7.48312 16.4 8.05608 16.4089 8.64294C16.4215 9.6551 16.5906 10.8187 16.1401 11.7488Z" fill="#ADADAD"/>
</g>
<path d="M5.74332 4.57148C5.55654 4.00103 5.88719 3.31448 6.45637 2.96868C7.30447 2.45376 8.85426 2.39823 9.48024 3.32331C9.52441 3.38894 9.56353 3.45583 9.59761 3.5265C9.92195 4.21558 9.40704 4.85291 8.82776 5.15454C8.12101 5.52053 7.12274 5.61266 6.39327 5.24919C6.11941 5.11415 5.8405 4.86932 5.74332 4.57148Z" fill="#EC6C30"/>
<path d="M2.66393 9.98817C2.36735 9.84303 2.10105 9.52626 2.06445 9.1956C2.04552 9.01891 2.11998 8.81068 2.26764 8.70214C2.45947 8.55953 2.71567 8.57089 2.93527 8.63525C3.29369 8.74 3.60794 9.00251 3.70638 9.36345C3.89316 10.0374 3.16243 10.2343 2.66393 9.98817ZM6.60025 10.8779C6.30619 10.734 6.03737 10.4173 6.00204 10.0866C5.98311 9.90992 6.05757 9.70168 6.2027 9.59188C6.39453 9.45053 6.65325 9.46063 6.87285 9.525C7.23127 9.62975 7.54426 9.89099 7.64396 10.2519C7.83074 10.9284 7.10128 11.1253 6.60025 10.8779ZM11.2572 9.97933C11.4402 9.73197 11.526 9.35336 11.4137 9.06309C11.3544 8.90785 11.2017 8.76651 11.0351 8.73874C10.8142 8.7034 10.6047 8.82456 10.4495 8.97096C10.1958 9.21201 10.0482 9.56412 10.1201 9.9074C10.2551 10.5485 10.9455 10.3996 11.2572 9.97933ZM14.2306 7.22807C14.4123 6.98071 14.4994 6.6021 14.3883 6.31056C14.3278 6.15533 14.1763 6.01398 14.0085 5.98622C13.7876 5.95088 13.5781 6.07078 13.4229 6.21717C13.1679 6.45822 13.019 6.8116 13.0922 7.15487C13.2285 7.79725 13.9201 7.64833 14.2306 7.22807ZM14.7404 10.705C14.8931 10.493 14.9663 10.1686 14.8742 9.92128C14.825 9.78876 14.6988 9.66761 14.5574 9.64489C14.3732 9.6146 14.199 9.71809 14.0678 9.84429C13.857 10.05 13.7321 10.3529 13.7914 10.6457C13.9037 11.1934 14.4805 11.0647 14.7404 10.705ZM12.0725 13.2102C12.234 12.9855 12.3135 12.6435 12.2138 12.3797C12.1621 12.2397 12.0283 12.1109 11.8806 12.0869C11.685 12.0554 11.4995 12.1652 11.3619 12.2977C11.1373 12.5173 11.0048 12.8353 11.0679 13.1458C11.1853 13.7263 11.7961 13.59 12.0725 13.2102ZM4.62388 11.9734C4.34876 11.8106 4.11149 11.5077 4.0812 11.2174C4.0648 11.0647 4.12916 10.8855 4.25663 10.7934C4.42827 10.6697 4.66805 10.681 4.88008 10.7391C5.24733 10.8413 5.58935 11.1051 5.70672 11.4698C5.93389 12.1791 5.12365 12.2712 4.62388 11.9734ZM3.53474 13.402C3.30252 13.2632 3.10059 13.007 3.07409 12.7609C3.05895 12.6322 3.11321 12.4794 3.22301 12.4012C3.36941 12.2964 3.5726 12.3065 3.75181 12.357C4.06227 12.4428 4.35381 12.6662 4.45224 12.9754C4.64534 13.5762 3.96005 13.6531 3.53474 13.402ZM7.0672 14.2021C6.8211 14.057 6.60908 13.7869 6.58132 13.5269C6.56617 13.3906 6.62423 13.2304 6.73655 13.1483C6.89052 13.0373 7.10506 13.0474 7.29437 13.1004C7.6225 13.1925 7.92918 13.4285 8.03267 13.7541C8.23712 14.3864 7.51271 14.4684 7.0672 14.2021Z" fill="#2F2F2F"/>
</svg>
